# xmcd
#
# Track frame offsets: 
#        150
#        44600
#        90430
#        114687
#        141132
#
# Disc length: 2396 seconds
#
# Revision: 0
# Processed by: cddbd v1.5.2PL0 Copyright (c) Steve Scherf et al.
# Submitted via: ExactAudioCopy v1.0b1
#
DISCID=3f095a05
DTITLE=Eric Clapton  - A Wednesday Night at Tokyo Dome - Disc 2
DYEAR=1900
DGENRE=
TTITLE0=Cocaine
TTITLE1=Layla
TTITLE2=Solid Rock
TTITLE3=Saturday Night
TTITLE4=Sunshine of Your Love
EXTD=
EXTT0=
EXTT1=
EXTT2=
EXTT3=
EXTT4=
PLAYORDER=
